<mxfile host="Electron" agent="Mozilla/5.0 (Windows NT 10.0; Win64; x64) AppleWebKit/537.36 (KHTML, like Gecko) draw.io/27.0.9 Chrome/134.0.6998.205 Electron/35.4.0 Safari/537.36" version="27.0.9">
  <diagram name="第 1 页" id="wdwjQFUNPfLVZsiG2_iE">
    <mxGraphModel dx="1213" dy="828" grid="1" gridSize="10" guides="1" tooltips="1" connect="1" arrows="1" fold="1" page="1" pageScale="1" pageWidth="827" pageHeight="1169" math="0" shadow="0">
      <root>
        <mxCell id="0" />
        <mxCell id="1" parent="0" />
        <mxCell id="W4StYlswAq_lCgOjfhbm-1" value="&lt;div style=&quot;line-height: 160%;&quot;&gt;&lt;font style=&quot;font-size: 23px;&quot;&gt;英雄&lt;/font&gt;&lt;/div&gt;" style="rounded=0;whiteSpace=wrap;html=1;fillColor=#1ba1e2;fontColor=#ffffff;strokeColor=#006EAF;" vertex="1" parent="1">
          <mxGeometry x="10" y="390" width="120" height="60" as="geometry" />
        </mxCell>
        <mxCell id="W4StYlswAq_lCgOjfhbm-3" value="&lt;font style=&quot;font-size: 21px;&quot;&gt;底盘&lt;/font&gt;" style="rounded=1;whiteSpace=wrap;html=1;fillColor=#f0a30a;fontColor=#000000;strokeColor=#BD7000;" vertex="1" parent="1">
          <mxGeometry x="210" y="40" width="120" height="60" as="geometry" />
        </mxCell>
        <mxCell id="W4StYlswAq_lCgOjfhbm-5" value="" style="endArrow=none;html=1;rounded=0;" edge="1" parent="1">
          <mxGeometry width="50" height="50" relative="1" as="geometry">
            <mxPoint x="130" y="420" as="sourcePoint" />
            <mxPoint x="170" y="420" as="targetPoint" />
          </mxGeometry>
        </mxCell>
        <mxCell id="W4StYlswAq_lCgOjfhbm-6" value="" style="endArrow=none;html=1;rounded=0;" edge="1" parent="1">
          <mxGeometry width="50" height="50" relative="1" as="geometry">
            <mxPoint x="170" y="420" as="sourcePoint" />
            <mxPoint x="170" y="70" as="targetPoint" />
          </mxGeometry>
        </mxCell>
        <mxCell id="W4StYlswAq_lCgOjfhbm-7" value="" style="endArrow=none;html=1;rounded=0;entryX=0;entryY=0.5;entryDx=0;entryDy=0;" edge="1" parent="1" target="W4StYlswAq_lCgOjfhbm-3">
          <mxGeometry width="50" height="50" relative="1" as="geometry">
            <mxPoint x="170" y="70" as="sourcePoint" />
            <mxPoint x="220" y="20" as="targetPoint" />
          </mxGeometry>
        </mxCell>
        <mxCell id="W4StYlswAq_lCgOjfhbm-8" value="" style="endArrow=none;html=1;rounded=0;fillColor=#f0a30a;strokeColor=#FFFFFF;" edge="1" parent="1" target="W4StYlswAq_lCgOjfhbm-9">
          <mxGeometry width="50" height="50" relative="1" as="geometry">
            <mxPoint x="170" y="230" as="sourcePoint" />
            <mxPoint x="220" y="230" as="targetPoint" />
          </mxGeometry>
        </mxCell>
        <mxCell id="W4StYlswAq_lCgOjfhbm-9" value="&lt;font style=&quot;font-size: 19px;&quot;&gt;云台&lt;/font&gt;" style="rounded=1;whiteSpace=wrap;html=1;fillColor=#f0a30a;fontColor=#000000;strokeColor=#BD7000;" vertex="1" parent="1">
          <mxGeometry x="210" y="200" width="120" height="60" as="geometry" />
        </mxCell>
        <mxCell id="W4StYlswAq_lCgOjfhbm-10" value="" style="endArrow=none;html=1;rounded=0;" edge="1" parent="1" target="W4StYlswAq_lCgOjfhbm-11">
          <mxGeometry width="50" height="50" relative="1" as="geometry">
            <mxPoint x="170" y="390" as="sourcePoint" />
            <mxPoint x="210" y="400" as="targetPoint" />
          </mxGeometry>
        </mxCell>
        <mxCell id="W4StYlswAq_lCgOjfhbm-11" value="&lt;font style=&quot;font-size: 17px;&quot;&gt;拨弹盘&lt;/font&gt;" style="rounded=1;whiteSpace=wrap;html=1;fillColor=#f0a30a;fontColor=#000000;strokeColor=#BD7000;" vertex="1" parent="1">
          <mxGeometry x="210" y="360" width="120" height="60" as="geometry" />
        </mxCell>
        <mxCell id="W4StYlswAq_lCgOjfhbm-12" value="" style="endArrow=none;html=1;rounded=0;" edge="1" parent="1">
          <mxGeometry width="50" height="50" relative="1" as="geometry">
            <mxPoint x="170" y="630" as="sourcePoint" />
            <mxPoint x="170" y="420" as="targetPoint" />
          </mxGeometry>
        </mxCell>
        <mxCell id="W4StYlswAq_lCgOjfhbm-13" value="" style="endArrow=none;html=1;rounded=0;" edge="1" parent="1" target="W4StYlswAq_lCgOjfhbm-14">
          <mxGeometry width="50" height="50" relative="1" as="geometry">
            <mxPoint x="170" y="550" as="sourcePoint" />
            <mxPoint x="220" y="530" as="targetPoint" />
          </mxGeometry>
        </mxCell>
        <mxCell id="W4StYlswAq_lCgOjfhbm-14" value="&lt;font style=&quot;font-size: 18px;&quot;&gt;摩擦轮&lt;/font&gt;" style="rounded=1;whiteSpace=wrap;html=1;fillColor=#f0a30a;fontColor=#000000;strokeColor=#BD7000;" vertex="1" parent="1">
          <mxGeometry x="210" y="520" width="120" height="60" as="geometry" />
        </mxCell>
        <mxCell id="W4StYlswAq_lCgOjfhbm-15" value="" style="endArrow=none;html=1;rounded=0;" edge="1" parent="1">
          <mxGeometry width="50" height="50" relative="1" as="geometry">
            <mxPoint x="170" y="690" as="sourcePoint" />
            <mxPoint x="170" y="630" as="targetPoint" />
          </mxGeometry>
        </mxCell>
        <mxCell id="W4StYlswAq_lCgOjfhbm-16" value="" style="endArrow=none;html=1;rounded=0;" edge="1" parent="1" target="W4StYlswAq_lCgOjfhbm-17">
          <mxGeometry width="50" height="50" relative="1" as="geometry">
            <mxPoint x="170" y="690" as="sourcePoint" />
            <mxPoint x="220" y="690" as="targetPoint" />
          </mxGeometry>
        </mxCell>
        <mxCell id="W4StYlswAq_lCgOjfhbm-17" value="&lt;font style=&quot;font-size: 17px;&quot;&gt;图传组件&lt;/font&gt;" style="rounded=1;whiteSpace=wrap;html=1;fillColor=#f0a30a;fontColor=#000000;strokeColor=#BD7000;" vertex="1" parent="1">
          <mxGeometry x="210" y="660" width="120" height="60" as="geometry" />
        </mxCell>
        <mxCell id="W4StYlswAq_lCgOjfhbm-19" value="" style="endArrow=none;html=1;rounded=0;" edge="1" parent="1">
          <mxGeometry width="50" height="50" relative="1" as="geometry">
            <mxPoint x="330" y="60" as="sourcePoint" />
            <mxPoint x="400" y="60" as="targetPoint" />
          </mxGeometry>
        </mxCell>
        <mxCell id="W4StYlswAq_lCgOjfhbm-20" value="" style="endArrow=none;dashed=1;html=1;dashPattern=1 3;strokeWidth=2;rounded=0;" edge="1" parent="1">
          <mxGeometry width="50" height="50" relative="1" as="geometry">
            <mxPoint x="400" y="120" as="sourcePoint" />
            <mxPoint x="400" y="10" as="targetPoint" />
          </mxGeometry>
        </mxCell>
        <mxCell id="W4StYlswAq_lCgOjfhbm-23" value="M3508-1&lt;div&gt;C620&lt;/div&gt;" style="rounded=1;whiteSpace=wrap;html=1;fillColor=#a0522d;fontColor=#ffffff;strokeColor=#6D1F00;" vertex="1" parent="1">
          <mxGeometry x="414" y="20" width="100" height="50" as="geometry" />
        </mxCell>
        <mxCell id="W4StYlswAq_lCgOjfhbm-24" value="M3508-2&lt;div&gt;C620&lt;/div&gt;" style="rounded=1;whiteSpace=wrap;html=1;fillColor=#a0522d;fontColor=#ffffff;strokeColor=#6D1F00;" vertex="1" parent="1">
          <mxGeometry x="530" y="20" width="100" height="50" as="geometry" />
        </mxCell>
        <mxCell id="W4StYlswAq_lCgOjfhbm-25" value="M3508-3&lt;div&gt;C620&lt;/div&gt;" style="rounded=1;whiteSpace=wrap;html=1;fillColor=#a0522d;fontColor=#ffffff;strokeColor=#6D1F00;" vertex="1" parent="1">
          <mxGeometry x="414" y="80" width="100" height="50" as="geometry" />
        </mxCell>
        <mxCell id="W4StYlswAq_lCgOjfhbm-26" value="M3508-4&lt;div&gt;C620&lt;/div&gt;" style="rounded=1;whiteSpace=wrap;html=1;fillColor=#a0522d;fontColor=#ffffff;strokeColor=#6D1F00;" vertex="1" parent="1">
          <mxGeometry x="530" y="80" width="100" height="50" as="geometry" />
        </mxCell>
        <mxCell id="W4StYlswAq_lCgOjfhbm-27" value="" style="endArrow=none;dashed=1;html=1;dashPattern=1 3;strokeWidth=2;rounded=0;" edge="1" parent="1">
          <mxGeometry width="50" height="50" relative="1" as="geometry">
            <mxPoint x="400" y="150" as="sourcePoint" />
            <mxPoint x="400" y="120" as="targetPoint" />
          </mxGeometry>
        </mxCell>
        <mxCell id="W4StYlswAq_lCgOjfhbm-30" value="" style="endArrow=none;dashed=1;html=1;dashPattern=1 3;strokeWidth=2;rounded=0;" edge="1" parent="1">
          <mxGeometry width="50" height="50" relative="1" as="geometry">
            <mxPoint x="640" y="150" as="sourcePoint" />
            <mxPoint x="400" y="150" as="targetPoint" />
          </mxGeometry>
        </mxCell>
        <mxCell id="W4StYlswAq_lCgOjfhbm-31" value="" style="endArrow=none;dashed=1;html=1;dashPattern=1 3;strokeWidth=2;rounded=0;" edge="1" parent="1">
          <mxGeometry width="50" height="50" relative="1" as="geometry">
            <mxPoint x="640" y="150" as="sourcePoint" />
            <mxPoint x="640" y="10" as="targetPoint" />
          </mxGeometry>
        </mxCell>
        <mxCell id="W4StYlswAq_lCgOjfhbm-33" value="" style="endArrow=none;dashed=1;html=1;dashPattern=1 3;strokeWidth=2;rounded=0;" edge="1" parent="1">
          <mxGeometry width="50" height="50" relative="1" as="geometry">
            <mxPoint x="400" y="10" as="sourcePoint" />
            <mxPoint x="640" y="10" as="targetPoint" />
          </mxGeometry>
        </mxCell>
        <mxCell id="W4StYlswAq_lCgOjfhbm-34" value="" style="endArrow=none;dashed=1;html=1;dashPattern=1 3;strokeWidth=2;rounded=0;" edge="1" parent="1">
          <mxGeometry width="50" height="50" relative="1" as="geometry">
            <mxPoint x="400" y="280" as="sourcePoint" />
            <mxPoint x="400" y="170" as="targetPoint" />
          </mxGeometry>
        </mxCell>
        <mxCell id="W4StYlswAq_lCgOjfhbm-35" value="DM4310" style="rounded=1;whiteSpace=wrap;html=1;fillColor=#76608a;strokeColor=#432D57;fontColor=#ffffff;" vertex="1" parent="1">
          <mxGeometry x="470" y="180" width="100" height="50" as="geometry" />
        </mxCell>
        <mxCell id="W4StYlswAq_lCgOjfhbm-37" value="M3508&lt;div&gt;C620&lt;/div&gt;" style="rounded=1;whiteSpace=wrap;html=1;fillColor=#a0522d;fontColor=#ffffff;strokeColor=#6D1F00;" vertex="1" parent="1">
          <mxGeometry x="470" y="240" width="100" height="50" as="geometry" />
        </mxCell>
        <mxCell id="W4StYlswAq_lCgOjfhbm-39" value="" style="endArrow=none;dashed=1;html=1;dashPattern=1 3;strokeWidth=2;rounded=0;" edge="1" parent="1">
          <mxGeometry width="50" height="50" relative="1" as="geometry">
            <mxPoint x="400" y="310" as="sourcePoint" />
            <mxPoint x="400" y="280" as="targetPoint" />
          </mxGeometry>
        </mxCell>
        <mxCell id="W4StYlswAq_lCgOjfhbm-40" value="" style="endArrow=none;dashed=1;html=1;dashPattern=1 3;strokeWidth=2;rounded=0;" edge="1" parent="1">
          <mxGeometry width="50" height="50" relative="1" as="geometry">
            <mxPoint x="640" y="310" as="sourcePoint" />
            <mxPoint x="400" y="310" as="targetPoint" />
          </mxGeometry>
        </mxCell>
        <mxCell id="W4StYlswAq_lCgOjfhbm-41" value="" style="endArrow=none;dashed=1;html=1;dashPattern=1 3;strokeWidth=2;rounded=0;" edge="1" parent="1">
          <mxGeometry width="50" height="50" relative="1" as="geometry">
            <mxPoint x="640" y="310" as="sourcePoint" />
            <mxPoint x="640" y="170" as="targetPoint" />
          </mxGeometry>
        </mxCell>
        <mxCell id="W4StYlswAq_lCgOjfhbm-42" value="" style="endArrow=none;dashed=1;html=1;dashPattern=1 3;strokeWidth=2;rounded=0;" edge="1" parent="1">
          <mxGeometry width="50" height="50" relative="1" as="geometry">
            <mxPoint x="400" y="170" as="sourcePoint" />
            <mxPoint x="640" y="170" as="targetPoint" />
          </mxGeometry>
        </mxCell>
        <mxCell id="W4StYlswAq_lCgOjfhbm-43" value="" style="endArrow=none;html=1;rounded=0;" edge="1" parent="1">
          <mxGeometry width="50" height="50" relative="1" as="geometry">
            <mxPoint x="330" y="230" as="sourcePoint" />
            <mxPoint x="400" y="230" as="targetPoint" />
          </mxGeometry>
        </mxCell>
        <mxCell id="W4StYlswAq_lCgOjfhbm-44" value="" style="endArrow=none;dashed=1;html=1;dashPattern=1 3;strokeWidth=2;rounded=0;" edge="1" parent="1">
          <mxGeometry width="50" height="50" relative="1" as="geometry">
            <mxPoint x="399.5" y="440" as="sourcePoint" />
            <mxPoint x="399.5" y="330" as="targetPoint" />
          </mxGeometry>
        </mxCell>
        <mxCell id="W4StYlswAq_lCgOjfhbm-47" value="" style="endArrow=none;dashed=1;html=1;dashPattern=1 3;strokeWidth=2;rounded=0;" edge="1" parent="1">
          <mxGeometry width="50" height="50" relative="1" as="geometry">
            <mxPoint x="399.5" y="470" as="sourcePoint" />
            <mxPoint x="399.5" y="440" as="targetPoint" />
          </mxGeometry>
        </mxCell>
        <mxCell id="W4StYlswAq_lCgOjfhbm-48" value="" style="endArrow=none;dashed=1;html=1;dashPattern=1 3;strokeWidth=2;rounded=0;" edge="1" parent="1">
          <mxGeometry width="50" height="50" relative="1" as="geometry">
            <mxPoint x="639.5" y="470" as="sourcePoint" />
            <mxPoint x="399.5" y="470" as="targetPoint" />
          </mxGeometry>
        </mxCell>
        <mxCell id="W4StYlswAq_lCgOjfhbm-49" value="" style="endArrow=none;dashed=1;html=1;dashPattern=1 3;strokeWidth=2;rounded=0;" edge="1" parent="1">
          <mxGeometry width="50" height="50" relative="1" as="geometry">
            <mxPoint x="639.5" y="470" as="sourcePoint" />
            <mxPoint x="639.5" y="330" as="targetPoint" />
          </mxGeometry>
        </mxCell>
        <mxCell id="W4StYlswAq_lCgOjfhbm-50" value="" style="endArrow=none;dashed=1;html=1;dashPattern=1 3;strokeWidth=2;rounded=0;" edge="1" parent="1">
          <mxGeometry width="50" height="50" relative="1" as="geometry">
            <mxPoint x="399.5" y="330" as="sourcePoint" />
            <mxPoint x="639.5" y="330" as="targetPoint" />
          </mxGeometry>
        </mxCell>
        <mxCell id="W4StYlswAq_lCgOjfhbm-56" value="" style="endArrow=none;dashed=1;html=1;dashPattern=1 3;strokeWidth=2;rounded=0;" edge="1" parent="1">
          <mxGeometry width="50" height="50" relative="1" as="geometry">
            <mxPoint x="399.5" y="600" as="sourcePoint" />
            <mxPoint x="399.5" y="490" as="targetPoint" />
          </mxGeometry>
        </mxCell>
        <mxCell id="W4StYlswAq_lCgOjfhbm-57" value="" style="endArrow=none;dashed=1;html=1;dashPattern=1 3;strokeWidth=2;rounded=0;" edge="1" parent="1">
          <mxGeometry width="50" height="50" relative="1" as="geometry">
            <mxPoint x="399.5" y="630" as="sourcePoint" />
            <mxPoint x="399.5" y="600" as="targetPoint" />
          </mxGeometry>
        </mxCell>
        <mxCell id="W4StYlswAq_lCgOjfhbm-58" value="" style="endArrow=none;dashed=1;html=1;dashPattern=1 3;strokeWidth=2;rounded=0;" edge="1" parent="1">
          <mxGeometry width="50" height="50" relative="1" as="geometry">
            <mxPoint x="639.5" y="630" as="sourcePoint" />
            <mxPoint x="399.5" y="630" as="targetPoint" />
          </mxGeometry>
        </mxCell>
        <mxCell id="W4StYlswAq_lCgOjfhbm-59" value="" style="endArrow=none;dashed=1;html=1;dashPattern=1 3;strokeWidth=2;rounded=0;" edge="1" parent="1">
          <mxGeometry width="50" height="50" relative="1" as="geometry">
            <mxPoint x="639.5" y="630" as="sourcePoint" />
            <mxPoint x="639.5" y="490" as="targetPoint" />
          </mxGeometry>
        </mxCell>
        <mxCell id="W4StYlswAq_lCgOjfhbm-60" value="" style="endArrow=none;dashed=1;html=1;dashPattern=1 3;strokeWidth=2;rounded=0;" edge="1" parent="1">
          <mxGeometry width="50" height="50" relative="1" as="geometry">
            <mxPoint x="399.5" y="490" as="sourcePoint" />
            <mxPoint x="639.5" y="490" as="targetPoint" />
          </mxGeometry>
        </mxCell>
        <mxCell id="W4StYlswAq_lCgOjfhbm-61" value="" style="endArrow=none;dashed=1;html=1;dashPattern=1 3;strokeWidth=2;rounded=0;" edge="1" parent="1">
          <mxGeometry width="50" height="50" relative="1" as="geometry">
            <mxPoint x="399.5" y="760" as="sourcePoint" />
            <mxPoint x="399.5" y="650" as="targetPoint" />
          </mxGeometry>
        </mxCell>
        <mxCell id="W4StYlswAq_lCgOjfhbm-62" value="" style="endArrow=none;dashed=1;html=1;dashPattern=1 3;strokeWidth=2;rounded=0;" edge="1" parent="1">
          <mxGeometry width="50" height="50" relative="1" as="geometry">
            <mxPoint x="399.5" y="790" as="sourcePoint" />
            <mxPoint x="399.5" y="760" as="targetPoint" />
          </mxGeometry>
        </mxCell>
        <mxCell id="W4StYlswAq_lCgOjfhbm-63" value="" style="endArrow=none;dashed=1;html=1;dashPattern=1 3;strokeWidth=2;rounded=0;" edge="1" parent="1">
          <mxGeometry width="50" height="50" relative="1" as="geometry">
            <mxPoint x="639.5" y="790" as="sourcePoint" />
            <mxPoint x="399.5" y="790" as="targetPoint" />
          </mxGeometry>
        </mxCell>
        <mxCell id="W4StYlswAq_lCgOjfhbm-64" value="" style="endArrow=none;dashed=1;html=1;dashPattern=1 3;strokeWidth=2;rounded=0;" edge="1" parent="1">
          <mxGeometry width="50" height="50" relative="1" as="geometry">
            <mxPoint x="640" y="790" as="sourcePoint" />
            <mxPoint x="639.5" y="650" as="targetPoint" />
          </mxGeometry>
        </mxCell>
        <mxCell id="W4StYlswAq_lCgOjfhbm-65" value="" style="endArrow=none;dashed=1;html=1;dashPattern=1 3;strokeWidth=2;rounded=0;" edge="1" parent="1">
          <mxGeometry width="50" height="50" relative="1" as="geometry">
            <mxPoint x="399.5" y="650" as="sourcePoint" />
            <mxPoint x="639.5" y="650" as="targetPoint" />
          </mxGeometry>
        </mxCell>
        <mxCell id="W4StYlswAq_lCgOjfhbm-66" value="" style="endArrow=none;html=1;rounded=0;" edge="1" parent="1">
          <mxGeometry width="50" height="50" relative="1" as="geometry">
            <mxPoint x="330" y="390" as="sourcePoint" />
            <mxPoint x="400" y="390" as="targetPoint" />
          </mxGeometry>
        </mxCell>
        <mxCell id="W4StYlswAq_lCgOjfhbm-67" value="" style="endArrow=none;html=1;rounded=0;" edge="1" parent="1">
          <mxGeometry width="50" height="50" relative="1" as="geometry">
            <mxPoint x="330" y="550" as="sourcePoint" />
            <mxPoint x="400" y="550" as="targetPoint" />
          </mxGeometry>
        </mxCell>
        <mxCell id="W4StYlswAq_lCgOjfhbm-68" value="" style="endArrow=none;html=1;rounded=0;" edge="1" parent="1">
          <mxGeometry width="50" height="50" relative="1" as="geometry">
            <mxPoint x="330" y="690" as="sourcePoint" />
            <mxPoint x="400" y="690" as="targetPoint" />
          </mxGeometry>
        </mxCell>
        <mxCell id="W4StYlswAq_lCgOjfhbm-69" value="DM4310" style="rounded=1;whiteSpace=wrap;html=1;fillColor=#76608a;strokeColor=#432D57;fontColor=#ffffff;" vertex="1" parent="1">
          <mxGeometry x="470" y="370" width="100" height="50" as="geometry" />
        </mxCell>
        <mxCell id="W4StYlswAq_lCgOjfhbm-70" value="M3508&lt;div&gt;C620&lt;/div&gt;" style="rounded=1;whiteSpace=wrap;html=1;fillColor=#a0522d;fontColor=#ffffff;strokeColor=#6D1F00;" vertex="1" parent="1">
          <mxGeometry x="414" y="510" width="60" height="40" as="geometry" />
        </mxCell>
        <mxCell id="W4StYlswAq_lCgOjfhbm-76" value="M3508&lt;div&gt;C620&lt;/div&gt;" style="rounded=1;whiteSpace=wrap;html=1;fillColor=#a0522d;fontColor=#ffffff;strokeColor=#6D1F00;" vertex="1" parent="1">
          <mxGeometry x="490" y="510" width="60" height="40" as="geometry" />
        </mxCell>
        <mxCell id="W4StYlswAq_lCgOjfhbm-77" value="M3508&lt;div&gt;C620&lt;/div&gt;" style="rounded=1;whiteSpace=wrap;html=1;fillColor=#a0522d;fontColor=#ffffff;strokeColor=#6D1F00;" vertex="1" parent="1">
          <mxGeometry x="570" y="510" width="60" height="40" as="geometry" />
        </mxCell>
        <mxCell id="W4StYlswAq_lCgOjfhbm-78" value="M3508&lt;div&gt;C620&lt;/div&gt;" style="rounded=1;whiteSpace=wrap;html=1;fillColor=#a0522d;fontColor=#ffffff;strokeColor=#6D1F00;" vertex="1" parent="1">
          <mxGeometry x="414" y="570" width="60" height="40" as="geometry" />
        </mxCell>
        <mxCell id="W4StYlswAq_lCgOjfhbm-79" value="M3508&lt;div&gt;C620&lt;/div&gt;" style="rounded=1;whiteSpace=wrap;html=1;fillColor=#a0522d;fontColor=#ffffff;strokeColor=#6D1F00;" vertex="1" parent="1">
          <mxGeometry x="490" y="570" width="60" height="40" as="geometry" />
        </mxCell>
        <mxCell id="W4StYlswAq_lCgOjfhbm-80" value="M3508&lt;div&gt;C620&lt;/div&gt;" style="rounded=1;whiteSpace=wrap;html=1;fillColor=#a0522d;fontColor=#ffffff;strokeColor=#6D1F00;" vertex="1" parent="1">
          <mxGeometry x="570" y="570" width="60" height="40" as="geometry" />
        </mxCell>
        <mxCell id="W4StYlswAq_lCgOjfhbm-81" value="" style="endArrow=none;dashed=1;html=1;dashPattern=1 3;strokeWidth=2;rounded=0;" edge="1" parent="1">
          <mxGeometry width="50" height="50" relative="1" as="geometry">
            <mxPoint x="660" y="510" as="sourcePoint" />
            <mxPoint x="800" y="510" as="targetPoint" />
          </mxGeometry>
        </mxCell>
        <mxCell id="W4StYlswAq_lCgOjfhbm-82" value="" style="endArrow=none;dashed=1;html=1;dashPattern=1 3;strokeWidth=2;rounded=0;" edge="1" parent="1">
          <mxGeometry width="50" height="50" relative="1" as="geometry">
            <mxPoint x="660" y="610" as="sourcePoint" />
            <mxPoint x="660" y="510" as="targetPoint" />
          </mxGeometry>
        </mxCell>
        <mxCell id="W4StYlswAq_lCgOjfhbm-85" value="摩擦轮" style="rounded=1;whiteSpace=wrap;html=1;fillColor=#647687;fontColor=#ffffff;strokeColor=#314354;" vertex="1" parent="1">
          <mxGeometry x="670" y="520" width="30" height="30" as="geometry" />
        </mxCell>
        <mxCell id="W4StYlswAq_lCgOjfhbm-86" value="摩擦轮" style="rounded=1;whiteSpace=wrap;html=1;fillColor=#647687;fontColor=#ffffff;strokeColor=#314354;" vertex="1" parent="1">
          <mxGeometry x="710" y="520" width="30" height="30" as="geometry" />
        </mxCell>
        <mxCell id="W4StYlswAq_lCgOjfhbm-87" value="摩擦轮" style="rounded=1;whiteSpace=wrap;html=1;fillColor=#647687;fontColor=#ffffff;strokeColor=#314354;" vertex="1" parent="1">
          <mxGeometry x="750" y="520" width="30" height="30" as="geometry" />
        </mxCell>
        <mxCell id="W4StYlswAq_lCgOjfhbm-88" value="" style="endArrow=none;dashed=1;html=1;dashPattern=1 3;strokeWidth=2;rounded=0;" edge="1" parent="1">
          <mxGeometry width="50" height="50" relative="1" as="geometry">
            <mxPoint x="800" y="610" as="sourcePoint" />
            <mxPoint x="800" y="510" as="targetPoint" />
          </mxGeometry>
        </mxCell>
        <mxCell id="W4StYlswAq_lCgOjfhbm-89" value="摩擦轮" style="rounded=1;whiteSpace=wrap;html=1;fillColor=#647687;fontColor=#ffffff;strokeColor=#314354;" vertex="1" parent="1">
          <mxGeometry x="670" y="560" width="30" height="30" as="geometry" />
        </mxCell>
        <mxCell id="W4StYlswAq_lCgOjfhbm-90" value="摩擦轮" style="rounded=1;whiteSpace=wrap;html=1;fillColor=#647687;fontColor=#ffffff;strokeColor=#314354;" vertex="1" parent="1">
          <mxGeometry x="710" y="560" width="30" height="30" as="geometry" />
        </mxCell>
        <mxCell id="W4StYlswAq_lCgOjfhbm-91" value="摩擦轮" style="rounded=1;whiteSpace=wrap;html=1;fillColor=#647687;fontColor=#ffffff;strokeColor=#314354;" vertex="1" parent="1">
          <mxGeometry x="750" y="560" width="30" height="30" as="geometry" />
        </mxCell>
        <mxCell id="W4StYlswAq_lCgOjfhbm-92" value="" style="endArrow=none;dashed=1;html=1;dashPattern=1 3;strokeWidth=2;rounded=0;" edge="1" parent="1">
          <mxGeometry width="50" height="50" relative="1" as="geometry">
            <mxPoint x="655" y="605" as="sourcePoint" />
            <mxPoint x="795" y="605" as="targetPoint" />
          </mxGeometry>
        </mxCell>
        <mxCell id="W4StYlswAq_lCgOjfhbm-93" value="图传组件" style="rounded=1;whiteSpace=wrap;html=1;fillColor=#bac8d3;strokeColor=#23445d;" vertex="1" parent="1">
          <mxGeometry x="460" y="690" width="120" height="60" as="geometry" />
        </mxCell>
        <mxCell id="W4StYlswAq_lCgOjfhbm-94" value="" style="endArrow=none;dashed=1;html=1;dashPattern=1 3;strokeWidth=2;rounded=0;" edge="1" parent="1">
          <mxGeometry width="50" height="50" relative="1" as="geometry">
            <mxPoint x="657" y="10" as="sourcePoint" />
            <mxPoint x="810" y="10" as="targetPoint" />
          </mxGeometry>
        </mxCell>
        <mxCell id="W4StYlswAq_lCgOjfhbm-95" value="" style="endArrow=none;dashed=1;html=1;dashPattern=1 3;strokeWidth=2;rounded=0;" edge="1" parent="1">
          <mxGeometry width="50" height="50" relative="1" as="geometry">
            <mxPoint x="657" y="150" as="sourcePoint" />
            <mxPoint x="657" y="10" as="targetPoint" />
          </mxGeometry>
        </mxCell>
        <mxCell id="W4StYlswAq_lCgOjfhbm-99" value="" style="endArrow=none;dashed=1;html=1;dashPattern=1 3;strokeWidth=2;rounded=0;" edge="1" parent="1">
          <mxGeometry width="50" height="50" relative="1" as="geometry">
            <mxPoint x="810" y="150" as="sourcePoint" />
            <mxPoint x="810" y="10" as="targetPoint" />
          </mxGeometry>
        </mxCell>
        <mxCell id="W4StYlswAq_lCgOjfhbm-103" value="" style="endArrow=none;dashed=1;html=1;dashPattern=1 3;strokeWidth=2;rounded=0;" edge="1" parent="1">
          <mxGeometry width="50" height="50" relative="1" as="geometry">
            <mxPoint x="655" y="150" as="sourcePoint" />
            <mxPoint x="810" y="150" as="targetPoint" />
          </mxGeometry>
        </mxCell>
        <mxCell id="W4StYlswAq_lCgOjfhbm-104" value="装甲板1" style="rounded=1;whiteSpace=wrap;html=1;fillColor=#cce5ff;strokeColor=#36393d;" vertex="1" parent="1">
          <mxGeometry x="670" y="20" width="55" height="50" as="geometry" />
        </mxCell>
        <mxCell id="W4StYlswAq_lCgOjfhbm-105" value="" style="rounded=1;whiteSpace=wrap;html=1;fillColor=#d5e8d4;strokeColor=#82b366;" vertex="1" parent="1">
          <mxGeometry x="740" y="20" width="55" height="50" as="geometry" />
        </mxCell>
        <mxCell id="W4StYlswAq_lCgOjfhbm-106" value="" style="rounded=1;whiteSpace=wrap;html=1;fillColor=#d5e8d4;strokeColor=#82b366;" vertex="1" parent="1">
          <mxGeometry x="670" y="80" width="55" height="50" as="geometry" />
        </mxCell>
        <mxCell id="W4StYlswAq_lCgOjfhbm-107" value="" style="rounded=1;whiteSpace=wrap;html=1;fillColor=#d5e8d4;strokeColor=#82b366;" vertex="1" parent="1">
          <mxGeometry x="740" y="80" width="55" height="50" as="geometry" />
        </mxCell>
        <mxCell id="W4StYlswAq_lCgOjfhbm-108" value="装甲板2" style="rounded=1;whiteSpace=wrap;html=1;fillColor=#cce5ff;strokeColor=#36393d;" vertex="1" parent="1">
          <mxGeometry x="740" y="20" width="55" height="50" as="geometry" />
        </mxCell>
        <mxCell id="W4StYlswAq_lCgOjfhbm-109" value="装甲板3" style="rounded=1;whiteSpace=wrap;html=1;fillColor=#cce5ff;strokeColor=#36393d;" vertex="1" parent="1">
          <mxGeometry x="670" y="80" width="55" height="50" as="geometry" />
        </mxCell>
        <mxCell id="W4StYlswAq_lCgOjfhbm-110" value="装甲板4" style="rounded=1;whiteSpace=wrap;html=1;fillColor=#cce5ff;strokeColor=#36393d;" vertex="1" parent="1">
          <mxGeometry x="740" y="80" width="55" height="50" as="geometry" />
        </mxCell>
      </root>
    </mxGraphModel>
  </diagram>
</mxfile>
